<svg xmlns="http://www.w3.org/2000/svg" width="50" height="25" viewBox="0 0 50 25">
    <g fill="none" fill-rule="evenodd">
        <g fill="#FFF" fill-rule="nonzero">
            <path d="M124.632 36.35c.117-.013.428.368 1.953.713 1.525.345 4.285.399 4.292.346.008-.059-1.785-.396-3.124-.672-1.48-.305-3.007-1.162-2.998-1.198.553-2.301 2.453-3.964 5.179-4.844 2.726-.88 6.849-1.158 10.483.58 1.948.931 2.812 2.987 3.021 4.895 9.655.792 16.562 2.904 16.562 5.386 0 2.207-5.393 4.123-13.396 5.076 3.2 4.209 4.847 6.313 4.944 6.313.651 0 .749.371.749.766s-.423.735-1.307.735c-.314 0-.677 0-.887-.318-.14-.213-.142-.48-.003-.801l-5.293-6.418c-3.37.388-4.643.38-9.639.367-4.995-.013-6.936-.08-9.987-.417l-5.194 6.409c.444.295.51.609.2.94-.353.378-.643.304-1.328.238s-1.069-.471-1.069-.866.284-.635.935-.635c.109 0 4.758-6.274 4.758-6.274-8.182-.94-13.483-2.878-13.483-5.115 0-2.313 6-4.305 14.632-5.206z" transform="translate(-110.000000, -30.000000)"/>
        </g>
    </g>
</svg>
