<svg xmlns="http://www.w3.org/2000/svg" width="22" height="22" viewBox="0 0 22 22">
    <g fill="none" fill-rule="evenodd" opacity=".8">
        <g fill="#9B9B9C" fill-rule="nonzero" stroke="#9B9B9C" stroke-width=".7">
            <path d="M771.055 435c-4.439 0-8.055 3.616-8.055 8.055s3.616 8.055 8.055 8.055c1.92 0 3.683-.678 5.07-1.805l5.45 5.45c.326.326.856.326 1.18 0 .326-.324.326-.845 0-1.17l-5.45-5.452c1.129-1.387 1.805-3.156 1.805-5.078 0-4.439-3.616-8.055-8.055-8.055zm0 1.667c3.538 0 6.389 2.85 6.389 6.388s-2.85 6.389-6.389 6.389c-3.538 0-6.388-2.85-6.388-6.389 0-3.538 2.85-6.388 6.388-6.388z" transform="translate(-762.000000, -434.000000)"/>
        </g>
    </g>
</svg>
